<svg xmlns="http://www.w3.org/2000/svg">
  <symbol id="ti-books" viewBox="0 0 24 24" fill="none" stroke="currentColor" stroke-width="2" stroke-linecap="round" stroke-linejoin="round">
    <path d="M5 5a1 1 0 0 1 1 -1h2a1 1 0 0 1 1 1v14a1 1 0 0 1 -1 1h-2a1 1 0 0 1 -1 -1l0 -14"/><path d="M9 5a1 1 0 0 1 1 -1h2a1 1 0 0 1 1 1v14a1 1 0 0 1 -1 1h-2a1 1 0 0 1 -1 -1l0 -14"/><path d="M5 8h4"/><path d="M9 16h4"/><path d="M13.803 4.56l2.184 -.53c.562 -.135 1.133 .19 1.282 .732l3.695 13.418a1.02 1.02 0 0 1 -.634 1.219l-.133 .041l-2.184 .53c-.562 .135 -1.133 -.19 -1.282 -.732l-3.695 -13.418a1.02 1.02 0 0 1 .634 -1.219l.133 -.041"/><path d="M14 9l4 -1"/><path d="M16 16l3.923 -.98"/>
  </symbol>
  <symbol id="ti-clock-hour-4" viewBox="0 0 24 24" fill="none" stroke="currentColor" stroke-width="2" stroke-linecap="round" stroke-linejoin="round"><path d="M3 12a9 9 0 1 0 18 0a9 9 0 1 0 -18 0"/><path d="M12 12l3 2"/><path d="M12 7v5"/></symbol>
  <symbol id="ti-heart" viewBox="0 0 24 24" fill="none" stroke="currentColor" stroke-width="2" stroke-linecap="round" stroke-linejoin="round"><path d="M19.5 12.572l-7.5 7.428l-7.5 -7.428a5 5 0 1 1 7.5 -6.566a5 5 0 1 1 7.5 6.572"/></symbol>
  <symbol id="ti-circle-check" viewBox="0 0 24 24" fill="none" stroke="currentColor" stroke-width="2" stroke-linecap="round" stroke-linejoin="round"><path d="M3 12a9 9 0 1 0 18 0a9 9 0 1 0 -18 0"/><path d="M9 12l2 2l4 -4"/></symbol>
  <symbol id="ti-user-share" viewBox="0 0 24 24" fill="none" stroke="currentColor" stroke-width="2" stroke-linecap="round" stroke-linejoin="round"><path d="M8 7a4 4 0 1 0 8 0a4 4 0 0 0 -8 0"/><path d="M6 21v-2a4 4 0 0 1 4 -4h3"/><path d="M16 22l5 -5"/><path d="M21 21.5v-4.5h-4.5"/></symbol>
  <symbol id="ti-notebook" viewBox="0 0 24 24" fill="none" stroke="currentColor" stroke-width="2" stroke-linecap="round" stroke-linejoin="round"><path d="M6 4h11a2 2 0 0 1 2 2v12a2 2 0 0 1 -2 2h-11a1 1 0 0 1 -1 -1v-14a1 1 0 0 1 1 -1m3 0v18"/><path d="M13 8l2 0"/><path d="M13 12l2 0"/></symbol>
  <symbol id="ti-trash" viewBox="0 0 24 24" fill="none" stroke="currentColor" stroke-width="2" stroke-linecap="round" stroke-linejoin="round"><path d="M4 7l16 0"/><path d="M10 11l0 6"/><path d="M14 11l0 6"/><path d="M5 7l1 12a2 2 0 0 0 2 2h8a2 2 0 0 0 2 -2l1 -12"/><path d="M9 7v-3a1 1 0 0 1 1 -1h4a1 1 0 0 1 1 1v3"/></symbol>
  <symbol id="ti-download" viewBox="0 0 24 24" fill="none" stroke="currentColor" stroke-width="2" stroke-linecap="round" stroke-linejoin="round"><path d="M4 17v2a2 2 0 0 0 2 2h12a2 2 0 0 0 2 -2v-2"/><path d="M7 11l5 5l5 -5"/><path d="M12 4l0 12"/></symbol>
  <symbol id="ti-logout" viewBox="0 0 24 24" fill="none" stroke="currentColor" stroke-width="2" stroke-linecap="round" stroke-linejoin="round"><path d="M14 8v-2a2 2 0 0 0 -2 -2h-7a2 2 0 0 0 -2 2v12a2 2 0 0 0 2 2h7a2 2 0 0 0 2 -2v-2"/><path d="M9 12h12l-3 -3"/><path d="M18 15l3 -3"/></symbol>
  <symbol id="ti-plus" viewBox="0 0 24 24" fill="none" stroke="currentColor" stroke-width="2" stroke-linecap="round" stroke-linejoin="round"><path d="M12 5l0 14"/><path d="M5 12l14 0"/></symbol>
  <symbol id="ti-x" viewBox="0 0 24 24" fill="none" stroke="currentColor" stroke-width="2" stroke-linecap="round" stroke-linejoin="round"><path d="M18 6l-12 12"/><path d="M6 6l12 12"/></symbol>
  <symbol id="ti-search" viewBox="0 0 24 24" fill="none" stroke="currentColor" stroke-width="2" stroke-linecap="round" stroke-linejoin="round"><path d="M3 10a7 7 0 1 0 14 0a7 7 0 1 0 -14 0"/><path d="M21 21l-6 -6"/></symbol>
  <symbol id="ti-layout-list" viewBox="0 0 24 24" fill="none" stroke="currentColor" stroke-width="2" stroke-linecap="round" stroke-linejoin="round"><path d="M4 6a2 2 0 0 1 2 -2h12a2 2 0 0 1 2 2v2a2 2 0 0 1 -2 2h-12a2 2 0 0 1 -2 -2l0 -2"/><path d="M4 16a2 2 0 0 1 2 -2h12a2 2 0 0 1 2 2v2a2 2 0 0 1 -2 2h-12a2 2 0 0 1 -2 -2l0 -2"/></symbol>
  <symbol id="ti-layout-grid" viewBox="0 0 24 24" fill="none" stroke="currentColor" stroke-width="2" stroke-linecap="round" stroke-linejoin="round"><path d="M4 5a1 1 0 0 1 1 -1h4a1 1 0 0 1 1 1v4a1 1 0 0 1 -1 1h-4a1 1 0 0 1 -1 -1l0 -4"/><path d="M14 5a1 1 0 0 1 1 -1h4a1 1 0 0 1 1 1v4a1 1 0 0 1 -1 1h-4a1 1 0 0 1 -1 -1l0 -4"/><path d="M4 15a1 1 0 0 1 1 -1h4a1 1 0 0 1 1 1v4a1 1 0 0 1 -1 1h-4a1 1 0 0 1 -1 -1l0 -4"/><path d="M14 15a1 1 0 0 1 1 -1h4a1 1 0 0 1 1 1v4a1 1 0 0 1 -1 1h-4a1 1 0 0 1 -1 -1l0 -4"/></symbol>
  <symbol id="ti-line-height" viewBox="0 0 24 24" fill="none" stroke="currentColor" stroke-width="2" stroke-linecap="round" stroke-linejoin="round"><path d="M3 8l3 -3l3 3"/><path d="M3 16l3 3l3 -3"/><path d="M6 5l0 14"/><path d="M13 6l7 0"/><path d="M13 12l7 0"/><path d="M13 18l7 0"/></symbol>
  <symbol id="ti-arrow-left" viewBox="0 0 24 24" fill="none" stroke="currentColor" stroke-width="2" stroke-linecap="round" stroke-linejoin="round"><path d="M5 12l14 0"/><path d="M5 12l6 6"/><path d="M5 12l6 -6"/></symbol>
  <symbol id="ti-arrows-sort" viewBox="0 0 24 24" fill="none" stroke="currentColor" stroke-width="2" stroke-linecap="round" stroke-linejoin="round"><path d="M3 9l4 -4l4 4m-4 -4v14"/><path d="M21 15l-4 4l-4 -4m4 4v-14"/></symbol>
  <symbol id="ti-sort-ascending" viewBox="0 0 24 24" fill="none" stroke="currentColor" stroke-width="2" stroke-linecap="round" stroke-linejoin="round"><path d="M4 6l7 0"/><path d="M4 12l7 0"/><path d="M4 18l9 0"/><path d="M15 9l3 -3l3 3"/><path d="M18 6l0 12"/></symbol>
  <symbol id="ti-sort-descending" viewBox="0 0 24 24" fill="none" stroke="currentColor" stroke-width="2" stroke-linecap="round" stroke-linejoin="round"><path d="M4 6l9 0"/><path d="M4 12l7 0"/><path d="M4 18l7 0"/><path d="M15 15l3 3l3 -3"/><path d="M18 6l0 12"/></symbol>
  <symbol id="ti-book-off" viewBox="0 0 24 24" fill="none" stroke="currentColor" stroke-width="2" stroke-linecap="round" stroke-linejoin="round"><path d="M3 19a9 9 0 0 1 9 0a9 9 0 0 1 5.899 -1.096"/><path d="M3 6a9 9 0 0 1 2.114 -.884m3.8 -.21c1.07 .17 2.116 .534 3.086 1.094a9 9 0 0 1 9 0"/><path d="M3 6v13"/><path d="M12 6v2m0 4v7"/><path d="M21 6v11"/><path d="M3 3l18 18"/></symbol>
  <symbol id="ti-filter" viewBox="0 0 24 24" fill="none" stroke="currentColor" stroke-width="2" stroke-linecap="round" stroke-linejoin="round"><path d="M4 4h16v2.172a2 2 0 0 1 -.586 1.414l-4.414 4.414v7l-6 2v-8.5l-4.48 -4.928a2 2 0 0 1 -.52 -1.345v-2.227"/></symbol>
  <symbol id="ti-chevron-right" viewBox="0 0 24 24" fill="none" stroke="currentColor" stroke-width="2" stroke-linecap="round" stroke-linejoin="round"><path d="M9 6l6 6l-6 6"/></symbol>
  <symbol id="ti-settings" viewBox="0 0 24 24" fill="none" stroke="currentColor" stroke-width="2" stroke-linecap="round" stroke-linejoin="round"><path d="M10.325 4.317c.426 -1.756 2.924 -1.756 3.35 0a1.724 1.724 0 0 0 2.573 1.066c1.543 -.94 3.31 .826 2.37 2.37a1.724 1.724 0 0 0 1.065 2.572c1.756 .426 1.756 2.924 0 3.35a1.724 1.724 0 0 0 -1.066 2.573c.94 1.543 -.826 3.31 -2.37 2.37a1.724 1.724 0 0 0 -2.572 1.065c-.426 1.756 -2.924 1.756 -3.35 0a1.724 1.724 0 0 0 -2.573 -1.066c-1.543 .94 -3.31 -.826 -2.37 -2.37a1.724 1.724 0 0 0 -1.065 -2.572c-1.756 -.426 -1.756 -2.924 0 -3.35a1.724 1.724 0 0 0 1.066 -2.573c-.94 -1.543 .826 -3.31 2.37 -2.37c1 .608 2.296 .07 2.572 -1.065"/><path d="M9 12a3 3 0 1 0 6 0a3 3 0 0 0 -6 0"/></symbol>
  <symbol id="ti-photo-plus" viewBox="0 0 24 24" fill="none" stroke="currentColor" stroke-width="2" stroke-linecap="round" stroke-linejoin="round"><path d="M15 8h.01"/><path d="M12.5 21h-6.5a3 3 0 0 1 -3 -3v-12a3 3 0 0 1 3 -3h12a3 3 0 0 1 3 3v6.5"/><path d="M3 16l5 -5c.928 -.893 2.072 -.893 3 0l4 4"/><path d="M14 14l1 -1c.67 -.644 1.45 -.824 2.182 -.54"/><path d="M16 19h6"/><path d="M19 16v6"/></symbol>
  <symbol id="ti-tags" viewBox="0 0 24 24" fill="none" stroke="currentColor" stroke-width="2" stroke-linecap="round" stroke-linejoin="round"><path d="M3 8v4.172a2 2 0 0 0 .586 1.414l5.71 5.71a2.41 2.41 0 0 0 3.408 0l3.592 -3.592a2.41 2.41 0 0 0 0 -3.408l-5.71 -5.71a2 2 0 0 0 -1.414 -.586h-4.172a2 2 0 0 0 -2 2"/><path d="M18 19l1.592 -1.592a4.82 4.82 0 0 0 0 -6.816l-4.592 -4.592"/><path d="M7 10h-.01"/></symbol>
  <symbol id="ti-paperclip" viewBox="0 0 24 24" fill="none" stroke="currentColor" stroke-width="2" stroke-linecap="round" stroke-linejoin="round"><path d="M15 7l-6.5 6.5a1.5 1.5 0 0 0 3 3l6.5 -6.5a3 3 0 0 0 -6 -6l-6.5 6.5a4.5 4.5 0 0 0 9 9l6.5 -6.5"/></symbol>
  <symbol id="ti-barcode" viewBox="0 0 24 24" fill="none" stroke="currentColor" stroke-width="2" stroke-linecap="round" stroke-linejoin="round"><path d="M4 7v-1a2 2 0 0 1 2 -2h2"/><path d="M4 17v1a2 2 0 0 0 2 2h2"/><path d="M16 4h2a2 2 0 0 1 2 2v1"/><path d="M16 20h2a2 2 0 0 0 2 -2v-1"/><path d="M5 11h1v2h-1l0 -2"/><path d="M10 11l0 2"/><path d="M14 11h1v2h-1l0 -2"/><path d="M19 11l0 2"/></symbol>
  <symbol id="ti-camera" viewBox="0 0 24 24" fill="none" stroke="currentColor" stroke-width="2" stroke-linecap="round" stroke-linejoin="round"><path d="M5 7h1a2 2 0 0 0 2 -2a1 1 0 0 1 1 -1h6a1 1 0 0 1 1 1a2 2 0 0 0 2 2h1a2 2 0 0 1 2 2v9a2 2 0 0 1 -2 2h-14a2 2 0 0 1 -2 -2v-9a2 2 0 0 1 2 -2"/><path d="M9 13a3 3 0 1 0 6 0a3 3 0 0 0 -6 0"/></symbol>
</svg>
